<?xml version="1.0" encoding="utf-8" ?>
<svg baseProfile="full" height="9000" version="1.1" width="9000" xmlns="http://www.w3.org/2000/svg" xmlns:ev="http://www.w3.org/2001/xml-events" xmlns:xlink="http://www.w3.org/1999/xlink"><defs /><text fill="black" x="0" y="100">Vietnamese: </text><text fill="black" x="10" y="50">PU</text><text fill="black" x="10" y="100">'</text><text fill="black" x="90" y="50">Cs</text><text fill="black" x="90" y="100">Nếu</text><text fill="black" x="170" y="50">Nc</text><text fill="black" x="170" y="100">điều</text><text fill="black" x="250" y="50">Pd</text><text fill="black" x="250" y="100">đó</text><text fill="black" x="330" y="50">Vv</text><text fill="black" x="330" y="100">giữ</text><text fill="black" x="410" y="50">R</text><text fill="black" x="410" y="100">được</text><text fill="black" x="490" y="50">Nn</text><text fill="black" x="490" y="100">hạnh_phúc</text><text fill="black" x="570" y="50">Nn</text><text fill="black" x="570" y="100">gia_đình</text><text fill="black" x="650" y="50">Cp</text><text fill="black" x="650" y="100">thì</text><text fill="black" x="730" y="50">R</text><text fill="black" x="730" y="100">vẫn</text><text fill="black" x="810" y="50">R</text><text fill="black" x="810" y="100">còn</text><text fill="black" x="890" y="50">Aa</text><text fill="black" x="890" y="100">hời</text><text fill="black" x="970" y="50">M</text><text fill="black" x="970" y="100">đấy</text><text fill="black" x="1050" y="50">PU</text><text fill="black" x="1050" y="100">!</text><text fill="black" x="0" y="250">English: </text><text fill="black" x="10" y="250">'</text><text fill="black" x="10" y="300">''</text><text fill="black" x="90" y="250">It</text><text fill="black" x="90" y="300">PRP</text><text fill="black" x="170" y="250">’</text><text fill="black" x="170" y="300">FW</text><text fill="black" x="250" y="250">ll</text><text fill="black" x="250" y="300">FW</text><text fill="black" x="330" y="250">be</text><text fill="black" x="330" y="300">VB</text><text fill="black" x="410" y="250">cheap</text><text fill="black" x="410" y="300">JJ</text><text fill="black" x="490" y="250">at</text><text fill="black" x="490" y="300">IN</text><text fill="black" x="570" y="250">the</text><text fill="black" x="570" y="300">DT</text><text fill="black" x="650" y="250">price</text><text fill="black" x="650" y="300">NN</text><text fill="black" x="730" y="250">if</text><text fill="black" x="730" y="300">IN</text><text fill="black" x="810" y="250">it</text><text fill="black" x="810" y="300">PRP</text><text fill="black" x="890" y="250">keeps</text><text fill="black" x="890" y="300">VBZ</text><text fill="black" x="970" y="250">the</text><text fill="black" x="970" y="300">DT</text><text fill="black" x="1050" y="250">family</text><text fill="black" x="1050" y="300">NN</text><text fill="black" x="1130" y="250">happy</text><text fill="black" x="1130" y="300">JJ</text><text fill="black" x="1210" y="250">!</text><text fill="black" x="1210" y="300">.</text><line stroke="rgb(10%,10%,16%)" x1="10" x2="10" y1="110" y2="225" /><line stroke="rgb(10%,10%,16%)" x1="100" x2="740" y1="110" y2="225" /><line stroke="rgb(10%,10%,16%)" x1="190" x2="820" y1="110" y2="225" /><line stroke="rgb(10%,10%,16%)" x1="340" x2="910" y1="110" y2="225" /><line stroke="rgb(10%,10%,16%)" x1="530" x2="1150" y1="110" y2="225" /><line stroke="rgb(10%,10%,16%)" x1="610" x2="1080" y1="110" y2="225" /><line stroke="rgb(10%,10%,16%)" x1="660" x2="430" y1="110" y2="225" /><line stroke="rgb(10%,10%,16%)" x1="740" x2="430" y1="110" y2="225" /><line stroke="rgb(10%,10%,16%)" x1="820" x2="430" y1="110" y2="225" /><line stroke="rgb(10%,10%,16%)" x1="900" x2="670" y1="110" y2="225" /><line stroke="rgb(10%,10%,16%)" x1="980" x2="430" y1="110" y2="225" /><line stroke="rgb(10%,10%,16%)" x1="1050" x2="1210" y1="110" y2="225" /></svg>