<?xml version="1.0" encoding="utf-8" ?>
<svg baseProfile="full" height="9000" version="1.1" width="9000" xmlns="http://www.w3.org/2000/svg" xmlns:ev="http://www.w3.org/2001/xml-events" xmlns:xlink="http://www.w3.org/1999/xlink"><defs /><text fill="black" x="10" y="50">Nq</text><text fill="black" x="10" y="100">Một</text><text fill="black" x="90" y="50">Nn</text><text fill="black" x="90" y="100">khách</text><text fill="black" x="170" y="50">Vv</text><text fill="black" x="170" y="100">trọ</text><text fill="black" x="250" y="50">R</text><text fill="black" x="250" y="100">đã</text><text fill="black" x="330" y="50">Vv</text><text fill="black" x="330" y="100">hút</text><text fill="black" x="410" y="50">Nn</text><text fill="black" x="410" y="100">thuốc</text><text fill="black" x="490" y="50">Vv</text><text fill="black" x="490" y="100">làm</text><text fill="black" x="570" y="50">Vv</text><text fill="black" x="570" y="100">cháy</text><text fill="black" x="650" y="50">Aa</text><text fill="black" x="650" y="100">thủng</text><text fill="black" x="730" y="50">Nq</text><text fill="black" x="730" y="100">một</text><text fill="black" x="810" y="50">Nn</text><text fill="black" x="810" y="100">lỗ</text><text fill="black" x="890" y="50">Cm</text><text fill="black" x="890" y="100">trên</text><text fill="black" x="970" y="50">Nc</text><text fill="black" x="970" y="100">tấm</text><text fill="black" x="1050" y="50">Vv</text><text fill="black" x="1050" y="100">trải</text><text fill="black" x="1130" y="50">Nn</text><text fill="black" x="1130" y="100">giường</text><text fill="black" x="1210" y="50">PU</text><text fill="black" x="1210" y="100">.</text><text fill="black" x="10" y="250">A</text><text fill="black" x="10" y="300">DT</text><text fill="black" x="90" y="250">guest</text><text fill="black" x="90" y="300">NN</text><text fill="black" x="170" y="250">burnt</text><text fill="black" x="170" y="300">VBD</text><text fill="black" x="250" y="250">a</text><text fill="black" x="250" y="300">DT</text><text fill="black" x="330" y="250">hole</text><text fill="black" x="330" y="300">NN</text><text fill="black" x="410" y="250">in</text><text fill="black" x="410" y="300">IN</text><text fill="black" x="490" y="250">the</text><text fill="black" x="490" y="300">DT</text><text fill="black" x="570" y="250">bed</text><text fill="black" x="570" y="300">NN</text><text fill="black" x="650" y="250">sheet</text><text fill="black" x="650" y="300">NN</text><text fill="black" x="730" y="250">with</text><text fill="black" x="730" y="300">IN</text><text fill="black" x="810" y="250">a</text><text fill="black" x="810" y="300">DT</text><text fill="black" x="890" y="250">cigarette</text><text fill="black" x="890" y="300">NN</text><text fill="black" x="970" y="250">.</text><text fill="black" x="970" y="300">.</text><line stroke="rgb(10%,10%,16%)" x1="20" x2="10" y1="110" y2="225" /><line stroke="rgb(10%,10%,16%)" x1="110" x2="110" y1="110" y2="225" /><line stroke="rgb(10%,10%,16%)" x1="180" x2="110" y1="110" y2="225" /><line stroke="rgb(10%,10%,16%)" x1="340" x2="930" y1="110" y2="225" /><line stroke="rgb(10%,10%,16%)" x1="430" x2="930" y1="110" y2="225" /><line stroke="rgb(10%,10%,16%)" x1="500" x2="190" y1="110" y2="225" /><line stroke="rgb(10%,10%,16%)" x1="590" x2="190" y1="110" y2="225" /><line stroke="rgb(10%,10%,16%)" x1="670" x2="350" y1="110" y2="225" /><line stroke="rgb(10%,10%,16%)" x1="740" x2="250" y1="110" y2="225" /><line stroke="rgb(10%,10%,16%)" x1="820" x2="350" y1="110" y2="225" /><line stroke="rgb(10%,10%,16%)" x1="910" x2="350" y1="110" y2="225" /><line stroke="rgb(10%,10%,16%)" x1="980" x2="670" y1="110" y2="225" /><line stroke="rgb(10%,10%,16%)" x1="1070" x2="670" y1="110" y2="225" /><line stroke="rgb(10%,10%,16%)" x1="1160" x2="580" y1="110" y2="225" /><line stroke="rgb(10%,10%,16%)" x1="1210" x2="970" y1="110" y2="225" /></svg>