<?xml version="1.0" encoding="utf-8" ?>
<svg baseProfile="full" height="9000" version="1.1" width="9000" xmlns="http://www.w3.org/2000/svg" xmlns:ev="http://www.w3.org/2001/xml-events" xmlns:xlink="http://www.w3.org/1999/xlink"><defs /><text fill="black" x="10" y="50">Nq</text><text fill="black" x="10" y="100">Một</text><text fill="black" x="90" y="50">Nn</text><text fill="black" x="90" y="100">khuôn_mặt</text><text fill="black" x="170" y="50">Vv</text><text fill="black" x="170" y="100">dính</text><text fill="black" x="250" y="50">Aa</text><text fill="black" x="250" y="100">đầy</text><text fill="black" x="330" y="50">Nn</text><text fill="black" x="330" y="100">bụi</text><text fill="black" x="410" y="50">Cp</text><text fill="black" x="410" y="100">và</text><text fill="black" x="490" y="50">Nn</text><text fill="black" x="490" y="100">mồ_hôi</text><text fill="black" x="570" y="50">PU</text><text fill="black" x="570" y="100">.</text><text fill="black" x="10" y="250">A</text><text fill="black" x="10" y="300">DT</text><text fill="black" x="90" y="250">face</text><text fill="black" x="90" y="300">NN</text><text fill="black" x="170" y="250">covered</text><text fill="black" x="170" y="300">VBN</text><text fill="black" x="250" y="250">with</text><text fill="black" x="250" y="300">IN</text><text fill="black" x="330" y="250">grime</text><text fill="black" x="330" y="300">NN</text><text fill="black" x="410" y="250">and</text><text fill="black" x="410" y="300">CC</text><text fill="black" x="490" y="250">sweat</text><text fill="black" x="490" y="300">NN</text><text fill="black" x="570" y="250">.</text><text fill="black" x="570" y="300">.</text><line stroke="rgb(10%,10%,16%)" x1="20" x2="10" y1="110" y2="225" /><line stroke="rgb(10%,10%,16%)" x1="130" x2="110" y1="110" y2="225" /><line stroke="rgb(10%,10%,16%)" x1="190" x2="200" y1="110" y2="225" /><line stroke="rgb(10%,10%,16%)" x1="260" x2="200" y1="110" y2="225" /><line stroke="rgb(10%,10%,16%)" x1="340" x2="350" y1="110" y2="225" /><line stroke="rgb(10%,10%,16%)" x1="420" x2="420" y1="110" y2="225" /><line stroke="rgb(10%,10%,16%)" x1="520" x2="510" y1="110" y2="225" /><line stroke="rgb(10%,10%,16%)" x1="570" x2="570" y1="110" y2="225" /></svg>